<svg xmlns="http://www.w3.org/2000/svg" width="220" height="52" viewBox="0 0 220 52" fill="none" role="img" aria-label="StayEase logo">
  <rect x="2" y="2" width="48" height="48" rx="14" fill="#FF385C"/>
  <path d="M14 27.8L26 16L38 27.8V38H30.6V30.6C30.6 28.8 29.2 27.4 27.4 27.4H24.6C22.8 27.4 21.4 28.8 21.4 30.6V38H14V27.8Z" fill="white"/>
  <path d="M64 34V16.8H74.1C78.1 16.8 80.8 19.1 80.8 22.6C80.8 25.2 79.2 27.1 76.8 27.8L81.3 34H76.4L72.6 28.5H68.2V34H64ZM68.2 24.9H73.6C75.4 24.9 76.6 24 76.6 22.6C76.6 21.2 75.4 20.3 73.6 20.3H68.2V24.9Z" fill="#222222"/>
  <path d="M89.2 34.3C85.5 34.3 83 32.1 83 28.8C83 25.5 85.4 23.3 89.2 23.3C92.9 23.3 95.3 25.5 95.3 28.8C95.3 32.1 92.9 34.3 89.2 34.3ZM89.2 31C90.8 31 91.9 30 91.9 28.8C91.9 27.6 90.8 26.6 89.2 26.6C87.5 26.6 86.4 27.6 86.4 28.8C86.4 30 87.5 31 89.2 31Z" fill="#222222"/>
  <path d="M103.3 34.3C100.5 34.3 98.4 33.1 97.7 31.2L100.8 29.9C101.3 31 102.2 31.6 103.4 31.6C104.4 31.6 105.1 31.2 105.1 30.5C105.1 29.7 104.3 29.5 102.6 29.2C99.8 28.8 98.2 27.8 98.2 25.6C98.2 23.2 100.2 21.8 103.1 21.8C105.5 21.8 107.5 22.8 108.3 24.5L105.4 25.8C104.9 24.9 104.1 24.5 103 24.5C102.1 24.5 101.5 24.8 101.5 25.4C101.5 26.1 102.3 26.3 103.9 26.6C106.8 27 108.4 28.1 108.4 30.3C108.4 32.8 106.2 34.3 103.3 34.3Z" fill="#222222"/>
  <path d="M111.9 34V24.1H109.7V21.9H111.9V18.8H115.2V21.9H118V24.1H115.2V34H111.9Z" fill="#222222"/>
  <path d="M120.2 34L126 16.8H130.8L136.6 34H132.2L131.1 30.5H125.7L124.6 34H120.2ZM126.7 27.3H130.1L128.4 21.8L126.7 27.3Z" fill="#222222"/>
  <path d="M144.1 34.3C140.4 34.3 138 32.1 138 28.8C138 25.5 140.4 23.3 144.1 23.3C146.8 23.3 149 24.6 149.8 26.9L146.7 28C146.2 27 145.3 26.5 144.1 26.5C142.5 26.5 141.4 27.5 141.4 28.8C141.4 30 142.5 31 144.1 31C145.4 31 146.3 30.4 146.8 29.4L149.9 30.5C149 32.9 146.9 34.3 144.1 34.3Z" fill="#222222"/>
  <path d="M152.2 34V16.8H156.3V34H152.2Z" fill="#222222"/>
  <path d="M165.4 34.3C161.7 34.3 159.2 32.1 159.2 28.8C159.2 25.5 161.6 23.3 165.3 23.3C168.9 23.3 171.3 25.5 171.3 28.8C171.3 29.2 171.3 29.5 171.2 29.9H162.5C162.8 30.8 163.7 31.4 165.1 31.4C166.2 31.4 167.1 31 167.6 30.4L170.5 31.6C169.5 33.3 167.6 34.3 165.4 34.3ZM162.6 27.5H168C167.6 26.5 166.7 26 165.3 26C164 26 163 26.6 162.6 27.5Z" fill="#222222"/>
  <path d="M178.6 34.3C175.8 34.3 173.7 33.1 173 31.2L176.1 29.9C176.6 31 177.5 31.6 178.7 31.6C179.7 31.6 180.4 31.2 180.4 30.5C180.4 29.7 179.6 29.5 177.9 29.2C175.1 28.8 173.5 27.8 173.5 25.6C173.5 23.2 175.5 21.8 178.4 21.8C180.8 21.8 182.8 22.8 183.6 24.5L180.7 25.8C180.2 24.9 179.4 24.5 178.3 24.5C177.4 24.5 176.8 24.8 176.8 25.4C176.8 26.1 177.6 26.3 179.2 26.6C182.1 27 183.7 28.1 183.7 30.3C183.7 32.8 181.5 34.3 178.6 34.3Z" fill="#222222"/>
</svg>
